<?xml version="1.0" encoding="UTF-8" standalone="no"?>
<svg width="800px" height="600px" viewBox="0 0 800 600" version="1.1" xmlns="http://www.w3.org/2000/svg" xmlns:xlink="http://www.w3.org/1999/xlink" xmlns:sketch="http://www.bohemiancoding.com/sketch/ns">
    <!-- Generator: Sketch 3.3.3 (12081) - http://www.bohemiancoding.com/sketch -->
    <title>placeholder</title>
    <desc>Created with Sketch.</desc>
    <defs></defs>
    <g id="Page-1" stroke="none" stroke-width="1" fill="none" fill-rule="evenodd" sketch:type="MSPage">
        <g id="placeholder" sketch:type="MSArtboardGroup">
            <g id="placeholder_featured_image" sketch:type="MSLayerGroup" transform="translate(-287.000000, -90.000000)">
                <g id="Background" fill="#363A3E" sketch:type="MSShapeGroup">
                    <rect id="Rectangle-path" x="0" y="0" width="1400" height="780"></rect>
                </g>
                <g id="Background"></g>
                <g id="Background" transform="translate(463.000000, 212.000000)" sketch:type="MSShapeGroup">
                    <g id="Group">
                        <path d="M0.326,0.495 L473.674,0.495 L473.674,355.505 L0.326,355.505 L0.326,0.495 Z" id="Shape" stroke="#43474B" stroke-width="30" fill-opacity="0" fill="#000000"></path>
                        <path d="M142.33,97.136 C142.33,116.961 126.259,133.032 106.435,133.032 C86.61,133.032 70.539,116.961 70.539,97.136 C70.539,77.312 86.61,61.241 106.435,61.241 C126.259,61.241 142.33,77.312 142.33,97.136 L142.33,97.136 Z" id="Shape" fill="#43474B"></path>
                        <path d="M415.689,295.548 L60.284,295.548 L107.618,194.173 L137.597,238.352 L237.789,86.092 L309.58,193.778 L343.503,156.699 L415.689,295.548 Z" id="Shape" fill="#43474B"></path>
                    </g>
                </g>
            </g>
        </g>
    </g>
</svg>